<svg xmlns="http://www.w3.org/2000/svg" width="1680" height="2290"
 viewBox="0 0 1680 2290" font-family="Inter">
<defs>
  <marker id="punta" viewBox="0 0 10 10" refX="8" refY="5" markerWidth="6"
          markerHeight="6" orient="auto-start-reverse">
    <path d="M 0 0 L 10 5 L 0 10 z" fill="#2E7D32"/>
  </marker>
  <linearGradient id="energia" x1="0" y1="0" x2="1" y2="0">
    <stop offset="0%" stop-color="#2E7D32"/>
    <stop offset="100%" stop-color="#FFB300"/>
  </linearGradient>
</defs>
<rect width="1680" height="2290" fill="#F7F9F8"/>
<rect x="0" y="0" width="1680" height="112" fill="#2E7D32"/>
<text x="56" y="52" font-family="Inter" font-size="34" font-weight="700" fill="#FFFFFF" text-anchor="start" letter-spacing="-0.5">CeldaPro</text>
<text x="56" y="82" font-family="Inter" font-size="15" font-weight="400" fill="#C8E6C9" text-anchor="start">Flujo de usuario y mapa de pantallas · versión 0.10.0</text>
<text x="1624" y="48" font-family="Inter" font-size="14" font-weight="400" fill="#C8E6C9" text-anchor="end">Taller de restauración de celdas de litio</text>
<text x="1624" y="72" font-family="Inter" font-size="14" font-weight="400" fill="#C8E6C9" text-anchor="end">100 % local · sin cuentas · Android</text>
<rect x="56" y="160" width="4" height="34" rx="2" fill="#2E7D32"/>
<text x="74" y="177" font-family="Inter" font-size="23" font-weight="700" fill="#263238" text-anchor="start">1. Arranque</text>
<text x="74" y="198" font-family="Inter" font-size="14" font-weight="400" fill="#90A4AE" text-anchor="start">Lo primero que ve el usuario decide si entiende la app o se pierde</text>
<rect x="56" y="222" width="190" height="84" rx="14" fill="#E8F5E9" stroke="#A5D6A7" stroke-width="1.5"/>
<text x="151" y="260" font-family="Inter" font-size="17" font-weight="700" fill="#2E7D32" text-anchor="middle">Abre la app</text>
<text x="151" y="282" font-family="Inter" font-size="13" font-weight="400" fill="#455A64" text-anchor="middle">sin conexión</text>
<rect x="336" y="222" width="230" height="84" rx="14" fill="#FFF8E1" stroke="#FFB300" stroke-width="1.5"/>
<text x="451" y="262" font-family="Inter" font-size="16" font-weight="700" fill="#8D6E00" text-anchor="middle">¿Es la primera vez?</text>
<text x="451" y="284" font-family="Inter" font-size="12" font-weight="400" fill="#455A64" text-anchor="middle">preferencia onboarding_visto</text>
<line x1="246" y1="264" x2="336" y2="264" stroke="#2E7D32" stroke-width="2.5" marker-end="url(#punta)" stroke-linecap="round"/>
<text x="376" y="322" font-family="Inter" font-size="13" font-weight="700" fill="#2E7D32" text-anchor="start">sí</text>
<path d="M 376 306 L 376 372 L 456 372" fill="none" stroke="#2E7D32" stroke-width="2.5" marker-end="url(#punta)" stroke-linecap="round"/>
<rect x="456" y="330" width="300" height="88" rx="14" fill="#FFFFFF" stroke="#2E7D32" stroke-width="1.5"/>
<text x="606" y="364" font-family="Inter" font-size="17" font-weight="700" fill="#2E7D32" text-anchor="middle">ONBOARDING</text>
<text x="606" y="386" font-family="Inter" font-size="13" font-weight="400" fill="#455A64" text-anchor="middle">4 pantallas · se puede saltar</text>
<text x="606" y="406" font-family="Inter" font-size="12" font-weight="400" fill="#90A4AE" text-anchor="middle">se puede repetir desde Ajustes</text>
<text x="586" y="322" font-family="Inter" font-size="13" font-weight="700" fill="#455A64" text-anchor="start">no</text>
<line x1="568" y1="264" x2="664" y2="264" stroke="#90A4AE" stroke-width="2" stroke-linecap="round"/>
<rect x="666" y="222" width="220" height="84" rx="14" fill="#ECEFF1" stroke="#90A4AE" stroke-width="1.5"/>
<text x="776" y="262" font-family="Inter" font-size="16" font-weight="700" fill="#455A64" text-anchor="middle">¿Hay celdas?</text>
<text x="776" y="284" font-family="Inter" font-size="12" font-weight="400" fill="#90A4AE" text-anchor="middle">total en la base</text>
<text x="716" y="322" font-family="Inter" font-size="13" font-weight="700" fill="#455A64" text-anchor="start">sí</text>
<path d="M 716 306 L 716 372 L 956 372" fill="none" stroke="#90A4AE" stroke-width="2" marker-end="url(#punta)" stroke-linecap="round"/>
<rect x="956" y="330" width="210" height="88" rx="14" fill="#FFFFFF" stroke="#90A4AE" stroke-width="1.5"/>
<text x="1061" y="364" font-family="Inter" font-size="16" font-weight="700" fill="#455A64" text-anchor="middle">Resumen</text>
<text x="1061" y="386" font-family="Inter" font-size="12" font-weight="400" fill="#90A4AE" text-anchor="middle">hay trabajo que mirar</text>
<text x="896" y="322" font-family="Inter" font-size="13" font-weight="700" fill="#2E7D32" text-anchor="start">no</text>
<path d="M 896 306 L 896 466 L 456 466" fill="none" stroke="#2E7D32" stroke-width="2.5" marker-end="url(#punta)" stroke-linecap="round"/>
<rect x="456" y="466" width="300" height="76" rx="14" fill="#E8F5E9" stroke="#A5D6A7" stroke-width="1.5"/>
<text x="606" y="498" font-family="Inter" font-size="16" font-weight="700" fill="#2E7D32" text-anchor="middle">Inventario</text>
<text x="606" y="520" font-family="Inter" font-size="12" font-weight="400" fill="#455A64" text-anchor="middle">con el onboarding al frente</text>
<rect x="932" y="436" width="470" height="118" rx="14" fill="#FFF8E1" stroke="#FFB300" stroke-width="1.5"/>
<text x="972" y="464" font-family="Inter" font-size="13" font-weight="700" fill="#8D6E00" text-anchor="start">EL CAMBIO</text>
<text x="972" y="488" font-family="Inter" font-size="13" font-weight="400" fill="#263238" text-anchor="start">Hoy la app abre siempre en Resumen y, con el</text>
<text x="972" y="508" font-family="Inter" font-size="13" font-weight="400" fill="#263238" text-anchor="start">taller vacío, no resume nada: solo un icono</text>
<text x="972" y="528" font-family="Inter" font-size="13" font-weight="400" fill="#263238" text-anchor="start">gris. Un taller nuevo pasa a abrir donde</text>
<text x="972" y="548" font-family="Inter" font-size="13" font-weight="400" fill="#263238" text-anchor="start">tiene que empezar.</text>
<rect x="56" y="594" width="4" height="34" rx="2" fill="#2E7D32"/>
<text x="74" y="611" font-family="Inter" font-size="23" font-weight="700" fill="#263238" text-anchor="start">2. Onboarding</text>
<text x="74" y="632" font-family="Inter" font-size="14" font-weight="400" fill="#90A4AE" text-anchor="start">Cuatro pantallas que enseñan el oficio, no un muro de texto</text>
<rect x="56" y="656" width="336" height="132" rx="14" fill="#FFFFFF" stroke="#DCE3E0" stroke-width="1.5"/>
<circle cx="90" cy="692" r="18" fill="#2E7D32"/>
<text x="90" y="698" font-family="Inter" font-size="17" font-weight="700" fill="#FFFFFF" text-anchor="middle">1</text>
<text x="118" y="698" font-family="Inter" font-size="16" font-weight="700" fill="#263238" text-anchor="start">Bienvenida</text>
<text x="78" y="732" font-family="Inter" font-size="13.5" font-weight="400" fill="#455A64" text-anchor="start">Qué es CeldaPro</text>
<rect x="78" y="748" width="292" height="26" rx="13" fill="#E8F5E9"/>
<text x="224" y="766" font-family="Inter" font-size="12.5" font-weight="600" fill="#2E7D32" text-anchor="middle">animación: batería que se llena</text>
<line x1="396" y1="722" x2="422" y2="722" stroke="#2E7D32" stroke-width="2.5" marker-end="url(#punta)" stroke-linecap="round"/>
<rect x="426" y="656" width="336" height="132" rx="14" fill="#FFFFFF" stroke="#DCE3E0" stroke-width="1.5"/>
<circle cx="460" cy="692" r="18" fill="#2E7D32"/>
<text x="460" y="698" font-family="Inter" font-size="17" font-weight="700" fill="#FFFFFF" text-anchor="middle">2</text>
<text x="488" y="698" font-family="Inter" font-size="16" font-weight="700" fill="#263238" text-anchor="start">El viaje de una celda</text>
<text x="448" y="732" font-family="Inter" font-size="13.5" font-weight="400" fill="#455A64" text-anchor="start">Las 7 etapas en secuencia</text>
<rect x="448" y="748" width="292" height="26" rx="13" fill="#E8F5E9"/>
<text x="594" y="766" font-family="Inter" font-size="12.5" font-weight="600" fill="#2E7D32" text-anchor="middle">animación: línea de energía</text>
<line x1="766" y1="722" x2="792" y2="722" stroke="#2E7D32" stroke-width="2.5" marker-end="url(#punta)" stroke-linecap="round"/>
<rect x="796" y="656" width="336" height="132" rx="14" fill="#FFFFFF" stroke="#DCE3E0" stroke-width="1.5"/>
<circle cx="830" cy="692" r="18" fill="#2E7D32"/>
<text x="830" y="698" font-family="Inter" font-size="17" font-weight="700" fill="#FFFFFF" text-anchor="middle">3</text>
<text x="858" y="698" font-family="Inter" font-size="16" font-weight="700" fill="#263238" text-anchor="start">Identificar y medir</text>
<text x="818" y="732" font-family="Inter" font-size="13.5" font-weight="400" fill="#455A64" text-anchor="start">Etiqueta, OCR, test masivo</text>
<rect x="818" y="748" width="292" height="26" rx="13" fill="#E8F5E9"/>
<text x="964" y="766" font-family="Inter" font-size="12.5" font-weight="600" fill="#2E7D32" text-anchor="middle">animación: pulso de escaneo</text>
<line x1="1136" y1="722" x2="1162" y2="722" stroke="#2E7D32" stroke-width="2.5" marker-end="url(#punta)" stroke-linecap="round"/>
<rect x="1166" y="656" width="336" height="132" rx="14" fill="#FFFFFF" stroke="#DCE3E0" stroke-width="1.5"/>
<circle cx="1200" cy="692" r="18" fill="#2E7D32"/>
<text x="1200" y="698" font-family="Inter" font-size="17" font-weight="700" fill="#FFFFFF" text-anchor="middle">4</text>
<text x="1228" y="698" font-family="Inter" font-size="16" font-weight="700" fill="#263238" text-anchor="start">Entregar y proteger</text>
<text x="1188" y="732" font-family="Inter" font-size="13.5" font-weight="400" fill="#455A64" text-anchor="start">Informes, etiquetas, respaldo</text>
<rect x="1188" y="748" width="292" height="26" rx="13" fill="#E8F5E9"/>
<text x="1334" y="766" font-family="Inter" font-size="12.5" font-weight="600" fill="#2E7D32" text-anchor="middle">animación: confirmación</text>
<rect x="56" y="812" width="290" height="56" rx="14" fill="#2E7D32" stroke="#2E7D32" stroke-width="1.5"/>
<text x="201" y="847" font-family="Inter" font-size="16" font-weight="600" fill="#FFFFFF" text-anchor="middle">Saltar  →</text>
<text x="362" y="836" font-family="Inter" font-size="13.5" font-weight="400" fill="#263238" text-anchor="start">Visible desde la primera pantalla.</text>
<text x="362" y="858" font-family="Inter" font-size="13.5" font-weight="400" fill="#90A4AE" text-anchor="start">Obligar a ver cuatro pantallas molesta.</text>
<rect x="886" y="812" width="400" height="56" rx="14" fill="#E8F5E9" stroke="#A5D6A7" stroke-width="1.5"/>
<text x="1086" y="847" font-family="Inter" font-size="15.5" font-weight="700" fill="#2E7D32" text-anchor="middle">Registrar mi primera celda  →</text>
<text x="1306" y="836" font-family="Inter" font-size="13.5" font-weight="400" fill="#263238" text-anchor="start">Termina en la acción,</text>
<text x="1306" y="858" font-family="Inter" font-size="13.5" font-weight="400" fill="#90A4AE" text-anchor="start">no en un «listo».</text>
<rect x="56" y="916" width="4" height="34" rx="2" fill="#2E7D32"/>
<text x="74" y="933" font-family="Inter" font-size="23" font-weight="700" fill="#263238" text-anchor="start">3. Las cuatro secciones</text>
<text x="74" y="954" font-family="Inter" font-size="14" font-weight="400" fill="#90A4AE" text-anchor="start">Qué hace el usuario en cada una y a dónde puede ir</text>
<rect x="56" y="978" width="372" height="258" rx="16" fill="#FFFFFF" stroke="#2E7D32" stroke-width="2"/>
<path d="M 56 994 a 16 16 0 0 1 16 -16 h 340 a 16 16 0 0 1 16 16 v 46 h -372 z" fill="#2E7D32"/>
<text x="76" y="1010" font-family="Inter" font-size="19" font-weight="700" fill="#FFFFFF" text-anchor="start">Resumen</text>
<text x="76" y="1030" font-family="Inter" font-size="12.5" font-weight="400" fill="#FFFFFF" text-anchor="start" opacity="0.85">Métricas del taller</text>
<circle cx="82" cy="1078" r="4" fill="#2E7D32"/>
<text x="98" y="1083" font-family="Inter" font-size="14" font-weight="400" fill="#263238" text-anchor="start">Batería de progreso</text>
<circle cx="82" cy="1108" r="4" fill="#2E7D32"/>
<text x="98" y="1113" font-family="Inter" font-size="14" font-weight="400" fill="#263238" text-anchor="start">Pendientes de medir</text>
<circle cx="82" cy="1138" r="4" fill="#2E7D32"/>
<text x="98" y="1143" font-family="Inter" font-size="14" font-weight="400" fill="#263238" text-anchor="start">Celdas recientes</text>
<circle cx="82" cy="1168" r="4" fill="#2E7D32"/>
<text x="98" y="1173" font-family="Inter" font-size="14" font-weight="400" fill="#263238" text-anchor="start">Aviso de respaldo</text>
<line x1="72" y1="1194" x2="412" y2="1194" stroke="#DCE3E0" stroke-width="1" stroke-linecap="round"/>
<text x="76" y="1220" font-family="Inter" font-size="12.5" font-weight="600" fill="#90A4AE" text-anchor="start">Lleva a Inventario y Lotes</text>
<rect x="452" y="978" width="372" height="378" rx="16" fill="#FFFFFF" stroke="#2E7D32" stroke-width="2"/>
<path d="M 452 994 a 16 16 0 0 1 16 -16 h 340 a 16 16 0 0 1 16 16 v 46 h -372 z" fill="#2E7D32"/>
<text x="472" y="1010" font-family="Inter" font-size="19" font-weight="700" fill="#FFFFFF" text-anchor="start">Inventario</text>
<text x="472" y="1030" font-family="Inter" font-size="12.5" font-weight="400" fill="#FFFFFF" text-anchor="start" opacity="0.85">El corazón de la app</text>
<circle cx="478" cy="1078" r="4" fill="#2E7D32"/>
<text x="494" y="1083" font-family="Inter" font-size="14" font-weight="400" fill="#263238" text-anchor="start">Ficha de celda</text>
<circle cx="478" cy="1108" r="4" fill="#2E7D32"/>
<text x="494" y="1113" font-family="Inter" font-size="14" font-weight="400" fill="#263238" text-anchor="start">Alta / edición</text>
<circle cx="478" cy="1138" r="4" fill="#2E7D32"/>
<text x="494" y="1143" font-family="Inter" font-size="14" font-weight="400" fill="#263238" text-anchor="start">Medir (test)</text>
<circle cx="478" cy="1168" r="4" fill="#2E7D32"/>
<text x="494" y="1173" font-family="Inter" font-size="14" font-weight="400" fill="#263238" text-anchor="start">Etiquetas · Informes</text>
<circle cx="478" cy="1198" r="4" fill="#2E7D32"/>
<text x="494" y="1203" font-family="Inter" font-size="14" font-weight="400" fill="#263238" text-anchor="start">Escanear QR</text>
<circle cx="478" cy="1228" r="4" fill="#2E7D32"/>
<text x="494" y="1233" font-family="Inter" font-size="14" font-weight="400" fill="#263238" text-anchor="start">Leer con OCR</text>
<circle cx="478" cy="1258" r="4" fill="#2E7D32"/>
<text x="494" y="1263" font-family="Inter" font-size="14" font-weight="400" fill="#263238" text-anchor="start">Test masivo</text>
<circle cx="478" cy="1288" r="4" fill="#2E7D32"/>
<text x="494" y="1293" font-family="Inter" font-size="14" font-weight="400" fill="#263238" text-anchor="start">Agrupar para packs</text>
<line x1="468" y1="1314" x2="808" y2="1314" stroke="#DCE3E0" stroke-width="1" stroke-linecap="round"/>
<text x="472" y="1340" font-family="Inter" font-size="12.5" font-weight="600" fill="#90A4AE" text-anchor="start">Lleva a 8 pantallas</text>
<rect x="848" y="978" width="372" height="318" rx="16" fill="#FFFFFF" stroke="#1565C0" stroke-width="2"/>
<path d="M 848 994 a 16 16 0 0 1 16 -16 h 340 a 16 16 0 0 1 16 16 v 46 h -372 z" fill="#1565C0"/>
<text x="868" y="1010" font-family="Inter" font-size="19" font-weight="700" fill="#FFFFFF" text-anchor="start">Lotes</text>
<text x="868" y="1030" font-family="Inter" font-size="12.5" font-weight="400" fill="#FFFFFF" text-anchor="start" opacity="0.85">Trabajo en conjunto</text>
<circle cx="874" cy="1078" r="4" fill="#1565C0"/>
<text x="890" y="1083" font-family="Inter" font-size="14" font-weight="400" fill="#263238" text-anchor="start">Alta de lote</text>
<circle cx="874" cy="1108" r="4" fill="#1565C0"/>
<text x="890" y="1113" font-family="Inter" font-size="14" font-weight="400" fill="#263238" text-anchor="start">Ver sus celdas</text>
<circle cx="874" cy="1138" r="4" fill="#1565C0"/>
<text x="890" y="1143" font-family="Inter" font-size="14" font-weight="400" fill="#263238" text-anchor="start">Cambios en bloque</text>
<circle cx="874" cy="1168" r="4" fill="#1565C0"/>
<text x="890" y="1173" font-family="Inter" font-size="14" font-weight="400" fill="#263238" text-anchor="start">Test masivo</text>
<circle cx="874" cy="1198" r="4" fill="#1565C0"/>
<text x="890" y="1203" font-family="Inter" font-size="14" font-weight="400" fill="#263238" text-anchor="start">Informe del lote</text>
<circle cx="874" cy="1228" r="4" fill="#1565C0"/>
<text x="890" y="1233" font-family="Inter" font-size="14" font-weight="400" fill="#263238" text-anchor="start">Agrupar el lote</text>
<line x1="864" y1="1254" x2="1204" y2="1254" stroke="#DCE3E0" stroke-width="1" stroke-linecap="round"/>
<text x="868" y="1280" font-family="Inter" font-size="12.5" font-weight="600" fill="#90A4AE" text-anchor="start">Lleva a 5 pantallas</text>
<rect x="1244" y="978" width="372" height="318" rx="16" fill="#FFFFFF" stroke="#455A64" stroke-width="2"/>
<path d="M 1244 994 a 16 16 0 0 1 16 -16 h 340 a 16 16 0 0 1 16 16 v 46 h -372 z" fill="#455A64"/>
<text x="1264" y="1010" font-family="Inter" font-size="19" font-weight="700" fill="#FFFFFF" text-anchor="start">Ajustes</text>
<text x="1264" y="1030" font-family="Inter" font-size="12.5" font-weight="400" fill="#FFFFFF" text-anchor="start" opacity="0.85">Configurar y proteger</text>
<circle cx="1270" cy="1078" r="4" fill="#455A64"/>
<text x="1286" y="1083" font-family="Inter" font-size="14" font-weight="400" fill="#263238" text-anchor="start">Umbrales de SoH</text>
<circle cx="1270" cy="1108" r="4" fill="#455A64"/>
<text x="1286" y="1113" font-family="Inter" font-size="14" font-weight="400" fill="#263238" text-anchor="start">Motivos de rechazo</text>
<circle cx="1270" cy="1138" r="4" fill="#455A64"/>
<text x="1286" y="1143" font-family="Inter" font-size="14" font-weight="400" fill="#263238" text-anchor="start">Respaldo / restaurar</text>
<circle cx="1270" cy="1168" r="4" fill="#455A64"/>
<text x="1286" y="1173" font-family="Inter" font-size="14" font-weight="400" fill="#263238" text-anchor="start">Marca del taller (Pro)</text>
<circle cx="1270" cy="1198" r="4" fill="#455A64"/>
<text x="1286" y="1203" font-family="Inter" font-size="14" font-weight="400" fill="#263238" text-anchor="start">Actualizaciones</text>
<circle cx="1270" cy="1228" r="4" fill="#455A64"/>
<text x="1286" y="1233" font-family="Inter" font-size="14" font-weight="400" fill="#263238" text-anchor="start">Ver onboarding otra vez</text>
<line x1="1260" y1="1254" x2="1600" y2="1254" stroke="#DCE3E0" stroke-width="1" stroke-linecap="round"/>
<text x="1264" y="1280" font-family="Inter" font-size="12.5" font-weight="600" fill="#90A4AE" text-anchor="start">Lleva a 2 pantallas</text>
<rect x="56" y="1412" width="4" height="34" rx="2" fill="#2E7D32"/>
<text x="74" y="1429" font-family="Inter" font-size="23" font-weight="700" fill="#263238" text-anchor="start">4. El viaje de una celda</text>
<text x="74" y="1450" font-family="Inter" font-size="14" font-weight="400" fill="#90A4AE" text-anchor="start">Las 7 etapas del proceso, con la línea de energía que las une</text>
<rect x="96" y="1536" width="1378" height="7" rx="3.5" fill="#ECEFF1"/>
<rect x="96" y="1536" width="992" height="7" rx="3.5" fill="url(#energia)"/>
<rect x="56" y="1474" width="218" height="56" rx="12" fill="#FFFFFF" stroke="#90A4AE" stroke-width="1.5"/>
<text x="165" y="1500" font-family="Inter" font-size="15.5" font-weight="700" fill="#90A4AE" text-anchor="middle">Recepcionada</text>
<text x="165" y="1519" font-family="Inter" font-size="11.5" font-weight="400" fill="#90A4AE" text-anchor="middle">llega del lote</text>
<circle cx="165" cy="1539.5" r="9" fill="#FFFFFF" stroke="#90A4AE" stroke-width="3"/>
<rect x="123" y="1566" width="52" height="22" rx="4" fill="none" stroke="#90A4AE" stroke-width="2"/>
<rect x="177" y="1573.0" width="4" height="7.9" rx="1.5" fill="#90A4AE"/>
<rect x="126" y="1569" width="4.6" height="16" rx="2" fill="#90A4AE"/>
<text x="187" y="1582" font-family="Inter" font-size="12.5" font-weight="700" fill="#90A4AE" text-anchor="middle">10 %</text>
<rect x="304" y="1474" width="218" height="56" rx="12" fill="#FFFFFF" stroke="#2E7D32" stroke-width="1.5"/>
<text x="413" y="1500" font-family="Inter" font-size="15.5" font-weight="700" fill="#2E7D32" text-anchor="middle">En test</text>
<text x="413" y="1519" font-family="Inter" font-size="11.5" font-weight="400" fill="#90A4AE" text-anchor="middle">se mide</text>
<circle cx="413" cy="1539.5" r="9" fill="#FFFFFF" stroke="#2E7D32" stroke-width="3"/>
<rect x="371" y="1566" width="52" height="22" rx="4" fill="none" stroke="#2E7D32" stroke-width="2"/>
<rect x="425" y="1573.0" width="4" height="7.9" rx="1.5" fill="#2E7D32"/>
<rect x="374" y="1569" width="16.1" height="16" rx="2" fill="#2E7D32"/>
<text x="435" y="1582" font-family="Inter" font-size="12.5" font-weight="700" fill="#2E7D32" text-anchor="middle">35 %</text>
<rect x="552" y="1474" width="218" height="56" rx="12" fill="#FFFFFF" stroke="#2E7D32" stroke-width="1.5"/>
<text x="661" y="1500" font-family="Inter" font-size="15.5" font-weight="700" fill="#2E7D32" text-anchor="middle">Clasificada</text>
<text x="661" y="1519" font-family="Inter" font-size="11.5" font-weight="400" fill="#90A4AE" text-anchor="middle">A / B / C</text>
<circle cx="661" cy="1539.5" r="9" fill="#FFFFFF" stroke="#2E7D32" stroke-width="3"/>
<rect x="619" y="1566" width="52" height="22" rx="4" fill="none" stroke="#2E7D32" stroke-width="2"/>
<rect x="673" y="1573.0" width="4" height="7.9" rx="1.5" fill="#2E7D32"/>
<rect x="622" y="1569" width="27.6" height="16" rx="2" fill="#2E7D32"/>
<text x="683" y="1582" font-family="Inter" font-size="12.5" font-weight="700" fill="#2E7D32" text-anchor="middle">60 %</text>
<rect x="800" y="1474" width="218" height="56" rx="12" fill="#FFFFFF" stroke="#2E7D32" stroke-width="1.5"/>
<text x="909" y="1500" font-family="Inter" font-size="15.5" font-weight="700" fill="#2E7D32" text-anchor="middle">Balanceada</text>
<text x="909" y="1519" font-family="Inter" font-size="11.5" font-weight="400" fill="#90A4AE" text-anchor="middle">voltaje igualado</text>
<circle cx="909" cy="1539.5" r="9" fill="#FFFFFF" stroke="#2E7D32" stroke-width="3"/>
<rect x="867" y="1566" width="52" height="22" rx="4" fill="none" stroke="#2E7D32" stroke-width="2"/>
<rect x="921" y="1573.0" width="4" height="7.9" rx="1.5" fill="#2E7D32"/>
<rect x="870" y="1569" width="34.5" height="16" rx="2" fill="#2E7D32"/>
<text x="931" y="1582" font-family="Inter" font-size="12.5" font-weight="700" fill="#2E7D32" text-anchor="middle">75 %</text>
<rect x="1048" y="1474" width="218" height="56" rx="12" fill="#FFFFFF" stroke="#2E7D32" stroke-width="1.5"/>
<text x="1157" y="1500" font-family="Inter" font-size="15.5" font-weight="700" fill="#2E7D32" text-anchor="middle">Reempacada</text>
<text x="1157" y="1519" font-family="Inter" font-size="11.5" font-weight="400" fill="#90A4AE" text-anchor="middle">montada en pack</text>
<circle cx="1157" cy="1539.5" r="9" fill="#FFFFFF" stroke="#2E7D32" stroke-width="3"/>
<rect x="1115" y="1566" width="52" height="22" rx="4" fill="none" stroke="#2E7D32" stroke-width="2"/>
<rect x="1169" y="1573.0" width="4" height="7.9" rx="1.5" fill="#2E7D32"/>
<rect x="1118" y="1569" width="41.4" height="16" rx="2" fill="#2E7D32"/>
<text x="1179" y="1582" font-family="Inter" font-size="12.5" font-weight="700" fill="#2E7D32" text-anchor="middle">90 %</text>
<rect x="1296" y="1474" width="218" height="56" rx="12" fill="#FFFFFF" stroke="#2E7D32" stroke-width="1.5"/>
<text x="1405" y="1500" font-family="Inter" font-size="15.5" font-weight="700" fill="#2E7D32" text-anchor="middle">Aprobada QA</text>
<text x="1405" y="1519" font-family="Inter" font-size="11.5" font-weight="400" fill="#90A4AE" text-anchor="middle">supera el control</text>
<circle cx="1405" cy="1539.5" r="9" fill="#FFFFFF" stroke="#2E7D32" stroke-width="3"/>
<rect x="1363" y="1566" width="52" height="22" rx="4" fill="none" stroke="#2E7D32" stroke-width="2"/>
<rect x="1417" y="1573.0" width="4" height="7.9" rx="1.5" fill="#2E7D32"/>
<rect x="1366" y="1569" width="46.0" height="16" rx="2" fill="#2E7D32"/>
<text x="1427" y="1582" font-family="Inter" font-size="12.5" font-weight="700" fill="#2E7D32" text-anchor="middle">100 %</text>
<path d="M 376 1530 L 376 1646 L 256 1646" fill="none" stroke="#C62828" stroke-width="2.5" marker-end="url(#punta)" stroke-linecap="round"/>
<rect x="56" y="1616" width="190" height="60" rx="12" fill="#FFEBEE" stroke="#C62828" stroke-width="1.5"/>
<text x="151" y="1642" font-family="Inter" font-size="15" font-weight="700" fill="#C62828" text-anchor="middle">Rechazada</text>
<text x="151" y="1662" font-family="Inter" font-size="11.5" font-weight="400" fill="#455A64" text-anchor="middle">con su motivo</text>
<rect x="56" y="1706" width="1568" height="104" rx="14" fill="#FFF8E1" stroke="#FFB300" stroke-width="1.5"/>
<text x="80" y="1736" font-family="Inter" font-size="13" font-weight="700" fill="#8D6E00" text-anchor="start">LO QUE FALTA HOY</text>
<text x="80" y="1762" font-family="Inter" font-size="13.5" font-weight="400" fill="#263238" text-anchor="start">La app conoce estas 7 etapas por dentro, pero el usuario solo ve la actual: no hay ninguna vista</text>
<text x="80" y="1784" font-family="Inter" font-size="13.5" font-weight="400" fill="#263238" text-anchor="start">que muestre el proceso entero, ni al principio ni después. El onboarding sería además el primer sitio</text>
<text x="80" y="1804" font-family="Inter" font-size="13.5" font-weight="400" fill="#263238" text-anchor="start">donde se explican juntas.</text>
<rect x="56" y="1854" width="4" height="34" rx="2" fill="#2E7D32"/>
<text x="74" y="1871" font-family="Inter" font-size="23" font-weight="700" fill="#263238" text-anchor="start">5. Los tres estados de cada pantalla</text>
<text x="74" y="1892" font-family="Inter" font-size="14" font-weight="400" fill="#90A4AE" text-anchor="start">Hoy los estados vacíos son un icono gris y un texto: no dicen qué hacer</text>
<rect x="56" y="1916" width="492" height="196" rx="16" fill="#FFFFFF" stroke="#90A4AE" stroke-width="2"/>
<text x="76" y="1950" font-family="Inter" font-size="17" font-weight="700" fill="#90A4AE" text-anchor="start">Vacío</text>
<text x="76" y="1986" font-family="Inter" font-size="13.5" font-weight="400" fill="#455A64" text-anchor="start">•  Icono gris y un texto fijo</text>
<text x="76" y="2010" font-family="Inter" font-size="13.5" font-weight="400" fill="#455A64" text-anchor="start">•  No lleva a ninguna acción</text>
<text x="76" y="2034" font-family="Inter" font-size="13.5" font-weight="400" fill="#455A64" text-anchor="start">•  Aparece en 5 sitios de la app</text>
<line x1="72" y1="2064" x2="532" y2="2064" stroke="#DCE3E0" stroke-width="1" stroke-linecap="round"/>
<text x="76" y="2092" font-family="Inter" font-size="12.5" font-weight="600" fill="#90A4AE" text-anchor="start">Pasa a: ondas de carga y un botón que lo resuelve</text>
<rect x="582" y="1916" width="492" height="196" rx="16" fill="#FFFFFF" stroke="#2E7D32" stroke-width="2"/>
<text x="602" y="1950" font-family="Inter" font-size="17" font-weight="700" fill="#2E7D32" text-anchor="start">Con datos</text>
<text x="602" y="1986" font-family="Inter" font-size="13.5" font-weight="400" fill="#455A64" text-anchor="start">•  Es lo normal</text>
<text x="602" y="2010" font-family="Inter" font-size="13.5" font-weight="400" fill="#455A64" text-anchor="start">•  Listas paginadas de 100 en 100</text>
<text x="602" y="2034" font-family="Inter" font-size="13.5" font-weight="400" fill="#455A64" text-anchor="start">•  Al cargar, una rueda centrada</text>
<line x1="598" y1="2064" x2="1058" y2="2064" stroke="#DCE3E0" stroke-width="1" stroke-linecap="round"/>
<text x="602" y="2092" font-family="Inter" font-size="12.5" font-weight="600" fill="#2E7D32" text-anchor="start">Pasa a: baterías que se llenan y esqueletos en su sitio</text>
<rect x="1108" y="1916" width="492" height="196" rx="16" fill="#FFFFFF" stroke="#C62828" stroke-width="2"/>
<text x="1128" y="1950" font-family="Inter" font-size="17" font-weight="700" fill="#C62828" text-anchor="start">Error</text>
<text x="1128" y="1986" font-family="Inter" font-size="13.5" font-weight="400" fill="#455A64" text-anchor="start">•  Un mensaje y, a veces, reintentar</text>
<text x="1128" y="2010" font-family="Inter" font-size="13.5" font-weight="400" fill="#455A64" text-anchor="start">•  A veces solo un texto seco</text>
<text x="1128" y="2034" font-family="Inter" font-size="13.5" font-weight="400" fill="#455A64" text-anchor="start">•  Sin salida clara</text>
<line x1="1124" y1="2064" x2="1584" y2="2064" stroke="#DCE3E0" stroke-width="1" stroke-linecap="round"/>
<text x="1128" y="2092" font-family="Inter" font-size="12.5" font-weight="600" fill="#C62828" text-anchor="start">Pasa a: mensaje claro y una acción de salida siempre</text>
<rect x="56" y="2160" width="1568" height="96" rx="16" fill="#E8F5E9" stroke="#A5D6A7" stroke-width="1.5"/>
<text x="80" y="2192" font-family="Inter" font-size="13" font-weight="700" fill="#2E7D32" text-anchor="start">REGLA TRANSVERSAL</text>
<text x="80" y="2218" font-family="Inter" font-size="14" font-weight="400" fill="#263238" text-anchor="start">Si el teléfono tiene activado «reducir animaciones» en Accesibilidad, la app las desactiva y todo aparece</text>
<text x="80" y="2238" font-family="Inter" font-size="14" font-weight="400" fill="#263238" text-anchor="start">directamente en su valor final. Es un requisito, no un extra: quien lo activa tiene una razón.</text>
<text x="840" y="2250" font-family="Inter" font-size="12.5" font-weight="400" fill="#90A4AE" text-anchor="middle">CeldaPro · plan de experiencia de usuario · Roxy para Steve Moya</text>
</svg>
